<svg width="25" height="24" fill="none" xmlns="http://www.w3.org/2000/svg"><g clip-path="url(#clip4)" fill="#fff"><path d="M15.413 5.672c-1.164 0-2.11.946-2.11 2.11 0 1.162.946 2.109 2.11 2.109a2.112 2.112 0 002.109-2.11c0-1.163-.946-2.11-2.11-2.11zm0 2.812a.704.704 0 11.001-1.407.704.704 0 01-.001 1.407zM9.788 5.672c-1.164 0-2.11.946-2.11 2.11 0 1.162.946 2.109 2.11 2.109a2.112 2.112 0 002.109-2.11c0-1.163-.946-2.11-2.11-2.11zm0 2.812a.704.704 0 11.001-1.407.704.704 0 01-.001 1.407z"/><path d="M22.49 11.297h-2.155V7.78C20.334 3.491 16.864 0 12.6 0 8.335 0 4.866 3.49 4.866 7.781v3.516H2.709A2.111 2.111 0 00.6 13.407v1.405c0 1.164.946 2.11 2.11 2.11.56 0 1.094-.216 1.503-.607.156-.15.286-.317.388-.497l.182.091-1.312 7.263a.703.703 0 00.692.828h16.875a.703.703 0 00.692-.828l-1.313-7.263.182-.091a2.183 2.183 0 001.892 1.104c1.163 0 2.11-.946 2.11-2.11v-1.406c0-1.163-.947-2.11-2.11-2.11zm.704 3.515a.704.704 0 01-.703.704c-.4 0-.75-.329-.75-.704a.703.703 0 00-1.018-.628l-2.812 1.406a.703.703 0 00.628 1.258l.567-.284 1.09 6.03h-2.674v-2.157a.703.703 0 00-1.406 0v2.157h-2.813V19.03a.703.703 0 00-1.406 0v3.563H9.084v-2.157a.703.703 0 00-1.406 0v2.157H5.004l1.09-6.03.567.284a.703.703 0 00.629-1.258l-2.813-1.406a.703.703 0 00-1.018.629c0 .374-.35.703-.75.703a.704.704 0 01-.703-.704v-1.406c0-.388.316-.703.703-.703h4.266a.703.703 0 000-1.406h-.703V7.78c0-3.515 2.839-6.375 6.328-6.375 3.49 0 6.328 2.86 6.328 6.375v3.516h-.703a.703.703 0 000 1.406h4.266c.387 0 .703.316.703.703v1.406z"/><path d="M12.6 9.89c-1.163 0-2.11.947-2.11 2.11v1.406c0 1.163.947 2.11 2.11 2.11 1.163 0 2.11-.947 2.11-2.11V12c0-1.163-.947-2.11-2.11-2.11zm.703 3.516a.704.704 0 01-1.406 0V12a.704.704 0 011.406 0v1.406z"/></g><defs><clipPath id="clip4"><path fill="#fff" d="M.6 0h24v24H.6z"/></clipPath></defs></svg>