<svg width="29" height="24" fill="none" xmlns="http://www.w3.org/2000/svg"><g clip-path="url(#clip0)"><path fill-rule="evenodd" clip-rule="evenodd" d="M28.753 5.187c-.11-.383-.392-.603-.687-.81-.342-.19-.57-.488-.946-.648-.178-.223-.627-.353-.773-.486-.072-.066-.072-.024-.172-.08-.34-.195-.642-.448-1.03-.568-.54-.49-1.21-.857-1.803-1.296a3.973 3.973 0 01-.945-.566c-.36-.176-.46-.594-.945-.65-.006-.049-.013-.095-.086-.08-.116.025-.165.115-.343.08-.646.364-1.103.905-1.718 1.297-.751.453-1.501.907-2.232 1.377-.388.204-.673.5-1.117.649-.103.2-.296.317-.516.405-.183.082-.32.418-.515.242-1.08-.44-1.94-1.087-2.92-1.62-.384-.367-1.036-.481-1.461-.81-.617-.175-1.03-.54-1.803-.567-.549-.032-.787.231-1.289.243C5.286 2.66 2.654 3.58.411 4.865c-.117.295-.112.705-.344.89-.116 1.272-.058 2.598 0 3.89.162 3.644-.288 7.816.257 11.585.05.63-.103 1.45.087 1.946.023.166.229.162.343.243.213-.106.416.18.429 0 .196.22.154.665.687.567.546.082.658-.245.945-.406a3 3 0 00.687-.647c.548-.348.956-.826 1.46-1.216.483-.408.955-.828 1.461-1.215.258-.188.534-.36.773-.567.348-.103.497-.396.858-.487 1.188.554 2.184 1.288 3.35 1.864.552.316 1.11.627 1.545 1.053.335.09.622.224.859.404.252-.02.264.184.516.164-.04.253.183.258.428.242.659-.244 1.155-.64 1.633-1.053.543-.351 1.09-.7 1.546-1.134.67-.232.977-.806 1.632-1.053.192-.252.577-.32.772-.568.302-.147.498-.393.86-.486 1.16.715 1.966 1.764 3.006 2.593.297.15.396.488.772.567.233.24.397.544.773.648.281.194.289.646.773.648.324.154.394.548.945.487.334-.153.436-.412.515-.81.084-.418-.063-.877 0-1.297.139-.301.28-.601.344-.973.457-3.592.146-7.908.343-11.748.155-.545.082-1.28.087-1.944.003-.684.104-1.36 0-1.865zM1.87 22.69c-.044-.042.063-.104.087-.08.043.04-.063.102-.087.08zM26.949 9.32c-.213 3.629.027 7.764-.173 11.505-1.144-.459-1.974-1.215-3.006-1.782-1.12-.457-1.783-1.342-3.006-1.702-.724.126-1.07.612-1.631.89-.42.388-.994.63-1.373 1.055-1.041.612-1.904 1.391-2.835 2.106-.331-.064-.382-.396-.6-.567-.157-.23-.49-.295-.602-.566-.684-.276-1.133-.769-1.89-.973-.652-.303-1.27-.638-1.976-.891-.198-.245-.537-.357-.686-.649-.269-.151-.474-.363-.86-.404-.566-.05-.91.112-1.202.323-.148.32-.624.33-.772.649-.309.166-.464.48-.774.648-.233.239-.397.543-.772.648-.427.517-1.005.889-1.375 1.458-.279.197-.45.494-.688.729-.057.189-.284.218-.341.405-.101.024-.25.46-.26.083.249-.32-.103-.764-.085-1.135-.09-4.991-.25-9.92-.514-14.746-.02-.261.305-.198.429-.324.128-.095.35-.101.43-.244.368-.111.564-.385.943-.486.62-.335 1.153-.75 1.804-1.053.562-.388 1.328-.584 1.89-.973.433-.049.533-.414 1.03-.404.282-.167.54-.356.86-.486.87.61 1.86 1.107 2.748 1.7.438.317.97.544 1.374.892.506.224.797.652 1.374.81.819-.092 1.37-.437 1.89-.81.54-.356 1.121-.67 1.631-1.053 1.143-.623 2.061-1.46 3.178-2.106a.609.609 0 01.258-.163c.516.404.96.876 1.631 1.134.577.348 1.144.704 1.804.972.31.41.77.678 1.203.973.364.332.742.649 1.202.891-.081 1.177-.185 2.397-.258 3.646zm-4.724-2.025c-.48-.466-.595-1.275-1.202-1.62-.52-.005-.593.412-.688.81.054.542.367.841.515 1.296a4.312 4.312 0 01-1.717.324c-.222.278-.715.298-.688.81.13.15.19.261.431.324.228.06.591-.045.858 0 .535-.143 1.044-.312 1.632-.405.408.317.58.856.859 1.296.32.401.39 1.037 1.288.891.1-.148.225-.274.343-.404-.145-.89-.726-1.368-1.03-2.107.473-.04.766-.25 1.203-.324.402-.105.772-.244.773-.73-.287-1.111-1.754-.213-2.577-.161zm-1.546 1.863c-.35.383-1.29.604-.945 1.377.41.202.634-.193.945-.324.248-.226.625-.328.515-.891-.18-.047-.245-.2-.514-.162zm-11.165.08c-.535.322-1.769.705-1.203 1.54.55.033.796-.222 1.032-.485.404-.105.572-.432.686-.81-.138-.113-.21-.288-.515-.244zm2.32 1.945c-.02-.197-.236-.365-.345-.485-.136-.15-.25-.396-.515-.405-.294-.035-.258.242-.43.324.052.437.369.625.517.972.277.252.359.687.858.73.019-.064.072-.095.172-.081.303-.31.026-.839-.258-1.055zm5.926.487c-.054.301-.352.37-.258.81.096.017.133.09.171.162.412.167.75-.204 1.031-.405.309-.25.656-.461.686-.972-.513-.606-1.24.145-1.63.405zm-10.908-.324c-.464.373-1.17.517-1.203 1.296.334.373.833-.004 1.117-.162.211-.313.592-.468.601-.973-.153-.071-.218-.226-.515-.161zm9.962 1.62c-.16-.064-.313-.136-.515-.162-.014.094-.136.088-.258.081-.307.27-.73.536-1.03.73-.03.019-.062.133-.086.161-.023.027-.148-.027-.173 0-.032.039-.07.212-.084.243-.044.104-.11.16-.086.324.274.568 1.07.222 1.374-.08.31-.384.974-.432.944-1.135-.067-.018-.1-.068-.086-.162zM4.017 14.019c.171.082.136.358.43.324.468-.151.842-.393.859-.972-.515-.411-1.293.058-1.289.648zm8.676-.81h-.172c-.1.096-.098.287-.087.486.268.406.761 1.15 1.374.729.107-.48-.188-.578-.343-.81-.296-.098-.287-.485-.772-.405z" fill="#fff"/></g><defs><clipPath id="clip0"><path fill="#fff" d="M0 0h28.8v24H0z"/></clipPath></defs></svg>