<svg width="25" height="24" fill="none" xmlns="http://www.w3.org/2000/svg"><g clip-path="url(#clip0)" fill="#fff"><path d="M23.743 5.672a.703.703 0 00-.703.703v.703h-1.454V3.516A3.52 3.52 0 0018.071 0H6.82a3.52 3.52 0 00-3.516 3.516v3.562H1.852v-.703a.703.703 0 00-1.406 0V12a.703.703 0 001.406 0v-.703h1.453v3.515c0 5.066 4.1 9.188 9.14 9.188 5.04 0 9.141-4.122 9.141-9.188v-3.515h1.454V12a.703.703 0 001.406 0V6.375a.703.703 0 00-.703-.703zM3.305 9.89H1.852V8.484h1.453v1.407zm16.875 4.921c0 4.291-3.47 7.782-7.734 7.782-4.265 0-7.735-3.49-7.735-7.782V6.957a2.1 2.1 0 002.11-.418 2.1 2.1 0 002.812 0 2.1 2.1 0 002.813 0 2.1 2.1 0 002.812 0 2.1 2.1 0 002.813 0 2.1 2.1 0 002.11.418v7.856zm0-9.843a.704.704 0 01-1.406 0 .703.703 0 00-1.406 0 .704.704 0 01-1.407 0 .703.703 0 00-1.406 0 .704.704 0 01-1.406 0 .703.703 0 00-1.406 0 .704.704 0 01-1.407 0 .703.703 0 00-1.406 0 .704.704 0 01-1.406 0 .703.703 0 00-1.406 0 .704.704 0 01-1.407 0V3.516c0-1.163.947-2.11 2.11-2.11h11.25c1.163 0 2.11.947 2.11 2.11v1.453zm2.86 4.922h-1.454V8.484h1.454v1.407z"/><path d="M18.774 9.188a.703.703 0 10-1.406 0 .704.704 0 01-.703.703h-2.23a.698.698 0 01-.498-.206 2.112 2.112 0 00-2.983 0 .698.698 0 01-.497.206h-2.23a.704.704 0 01-.703-.704.703.703 0 00-1.406 0c0 .352.086.683.239.974A2.816 2.816 0 008.93 14.11a2.816 2.816 0 002.782-3.226c.083-.061.162-.13.237-.204a.704.704 0 01.994 0c.074.075.154.143.236.204a2.816 2.816 0 002.782 3.226 2.816 2.816 0 002.574-3.948c.152-.291.239-.622.239-.973zM8.93 12.703a1.408 1.408 0 01-1.4-1.525c.218.077.453.114.697.114h2.11c0 .776-.631 1.411-1.407 1.411zm7.031 0c-.775 0-1.406-.63-1.406-1.406h2.11a2.1 2.1 0 00.697-.12 1.408 1.408 0 01-1.4 1.525z"/><path d="M13.852 14.11a.703.703 0 00-.703.703v.703h-1.406v-.704a.703.703 0 00-1.407 0v1.407c0 .388.315.703.704.703h2.812a.703.703 0 00.703-.703v-1.407a.703.703 0 00-.703-.703zm1.406 4.265H9.633a.703.703 0 000 1.406h5.625a.703.703 0 000-1.406z"/></g><defs><clipPath id="clip0"><path fill="#fff" d="M.446 0h24v24h-24z"/></clipPath></defs></svg>