<svg width="96" height="38" fill="none" xmlns="http://www.w3.org/2000/svg"><path d="M48.363 15.776v1.665h-8.147V5.5h7.996v1.665H42.09v3.397h5.302v1.565H42.09v3.65h6.273zm4.779 1.834a6.899 6.899 0 01-2.108-.337 5.442 5.442 0 01-1.79-.992l.736-1.177a7.05 7.05 0 001.556.874c.513.19 1.037.286 1.572.286.547 0 .976-.106 1.288-.32.324-.213.485-.515.485-.908 0-.37-.178-.639-.535-.807-.357-.168-.914-.353-1.673-.555a20.952 20.952 0 01-1.405-.42 3.605 3.605 0 01-.953-.471 1.65 1.65 0 01-.536-.623c-.111-.235-.167-.521-.167-.857 0-.449.084-.847.25-1.195.18-.347.42-.639.72-.874a3.223 3.223 0 011.087-.555 4.654 4.654 0 011.339-.185c.658 0 1.271.1 1.84.303a4.783 4.783 0 011.522.874l-.786 1.11c-.814-.65-1.678-.975-2.593-.975-.468 0-.864.1-1.188.302-.312.191-.468.5-.468.925 0 .18.033.331.1.455.067.123.173.23.318.32.156.089.352.173.586.251.245.068.546.146.903.236a18.04 18.04 0 011.522.437c.435.146.792.32 1.07.522.28.19.486.42.62.69.134.257.2.571.2.941 0 .84-.317 1.508-.953 2.001-.624.483-1.478.724-2.56.724zm4.551-4.575c0-.617.106-1.2.318-1.75.212-.549.513-1.03.903-1.446.402-.415.881-.74 1.439-.975.557-.247 1.182-.37 1.873-.37.904 0 1.679.202 2.326.605.658.393 1.148.92 1.472 1.581l-1.79.572a2.244 2.244 0 00-.853-.858 2.273 2.273 0 00-1.188-.32 2.49 2.49 0 00-1.037.22 2.455 2.455 0 00-.82.622 2.829 2.829 0 00-.552.925c-.134.359-.2.757-.2 1.194 0 .426.066.824.2 1.194.145.359.335.673.569.942.245.269.524.482.836.639.324.146.664.219 1.02.219.224 0 .447-.028.67-.084a2.45 2.45 0 00.602-.27c.19-.112.351-.24.485-.386.145-.146.251-.303.318-.471l1.807.538c-.29.661-.775 1.205-1.456 1.631-.68.415-1.483.623-2.409.623-.68 0-1.299-.124-1.856-.37a4.524 4.524 0 01-1.439-.993 4.843 4.843 0 01-.92-1.463 4.819 4.819 0 01-.318-1.75zm12.238 4.575c-.424 0-.82-.068-1.187-.202a3.095 3.095 0 01-.937-.589 2.885 2.885 0 01-.62-.874 2.732 2.732 0 01-.217-1.094c0-.415.09-.79.268-1.127.178-.336.43-.627.753-.874a3.806 3.806 0 011.17-.572 5.32 5.32 0 011.506-.202c.413 0 .82.04 1.221.118.402.067.764.162 1.088.286v-.606c0-.65-.184-1.155-.552-1.513-.368-.37-.898-.555-1.59-.555-.468 0-.93.09-1.388.269a6.719 6.719 0 00-1.388.74l-.569-1.178c1.126-.762 2.297-1.143 3.513-1.143 1.204 0 2.141.308 2.81.925.67.617 1.004 1.502 1.004 2.657v3.179c0 .392.162.594.485.605v1.581a4.663 4.663 0 01-.468.068 4.045 4.045 0 01-.368.017c-.357 0-.636-.09-.837-.27a1.17 1.17 0 01-.351-.69l-.05-.554c-.39.516-.876.914-1.456 1.194a4.248 4.248 0 01-1.84.404zm.502-1.363a3.33 3.33 0 001.255-.235c.401-.168.713-.398.936-.69.235-.202.352-.415.352-.639v-1.16a5.505 5.505 0 00-1.004-.286 5.331 5.331 0 00-1.02-.101c-.658 0-1.2.146-1.623.437-.412.28-.619.656-.619 1.127 0 .437.162.807.485 1.11.324.292.736.437 1.238.437zm11.583 1.363c-.702 0-1.321-.169-1.856-.505a3.756 3.756 0 01-1.272-1.312v5.23h-1.84V8.646h1.623v1.581a3.857 3.857 0 011.288-1.261 3.504 3.504 0 011.807-.471 3.7 3.7 0 011.656.37 4.21 4.21 0 011.305.992c.367.415.652.897.853 1.447.212.549.317 1.126.317 1.732a5.58 5.58 0 01-.284 1.8 4.555 4.555 0 01-.803 1.446 4.053 4.053 0 01-1.238.975 3.414 3.414 0 01-1.556.354zm-.602-1.581c.39 0 .742-.084 1.054-.253.324-.168.597-.392.82-.672.234-.28.413-.6.535-.96.123-.358.184-.728.184-1.11 0-.403-.072-.784-.217-1.143a2.87 2.87 0 00-.57-.942 2.554 2.554 0 00-1.94-.874c-.234 0-.48.045-.736.134-.256.09-.496.213-.719.37a2.76 2.76 0 00-.585.555 1.77 1.77 0 00-.352.673v2.304c.112.27.257.522.435.757.179.236.374.437.586.606.223.168.463.302.72.403.256.101.518.152.785.152zm10.103 1.581c-.68 0-1.3-.118-1.857-.354a4.523 4.523 0 01-1.439-.992 4.63 4.63 0 01-.92-1.446 4.818 4.818 0 01-.317-1.75c0-.616.106-1.2.317-1.749.223-.56.53-1.048.92-1.463a4.192 4.192 0 011.439-.992c.558-.247 1.182-.37 1.874-.37.68 0 1.293.123 1.84.37a4.332 4.332 0 011.422.992c.39.404.685.88.886 1.43a4.595 4.595 0 01.268 2.371h-7.01c.034.393.123.746.268 1.06.157.314.352.588.586.824a2.601 2.601 0 001.79.706c.245 0 .485-.028.72-.084a2.98 2.98 0 00.668-.269c.2-.123.38-.269.535-.437.157-.168.28-.353.368-.555l1.573.454c-.301.661-.803 1.205-1.506 1.631-.691.415-1.5.623-2.425.623zm2.66-5.231a2.858 2.858 0 00-.285-1.026 2.428 2.428 0 00-.569-.79 2.5 2.5 0 00-.82-.522 2.662 2.662 0 00-.986-.185c-.346 0-.675.062-.987.185a2.546 2.546 0 00-.803.521 2.43 2.43 0 00-.569.791 3.09 3.09 0 00-.267 1.026h5.286zM40.216 34.26V22.32h5.17c.534 0 1.025.112 1.471.336.457.225.848.522 1.171.892.324.358.575.773.753 1.244.19.46.284.931.284 1.413 0 .404-.055.79-.167 1.16a4.13 4.13 0 01-.468 1.027 3.46 3.46 0 01-.736.824c-.29.224-.608.392-.954.504l2.794 4.541h-2.125l-2.576-4.154H42.09v4.154h-1.874zm1.874-5.819h3.278c.268 0 .508-.056.72-.168.223-.123.412-.286.569-.488a2.62 2.62 0 00.368-.723c.089-.27.133-.555.133-.858 0-.303-.055-.589-.167-.858a2.23 2.23 0 00-.418-.706 1.76 1.76 0 00-.602-.471 1.432 1.432 0 00-.703-.185H42.09v4.457zm12.637 5.988c-.69 0-1.315-.124-1.873-.37a4.379 4.379 0 01-1.405-.993 4.396 4.396 0 01-.904-1.446 4.907 4.907 0 01-.317-1.75c0-.605.106-1.182.317-1.732.212-.56.514-1.048.904-1.463a4.579 4.579 0 011.422-.992 4.54 4.54 0 011.856-.37c.68 0 1.294.123 1.84.37a4.334 4.334 0 011.422.992c.402.415.709.903.92 1.463.212.55.318 1.127.318 1.733 0 .605-.106 1.188-.317 1.749a4.263 4.263 0 01-.92 1.446 4.34 4.34 0 01-1.422.993c-.547.246-1.16.37-1.84.37zm-2.61-4.542c0 .427.068.819.202 1.178.133.359.317.672.552.942.234.258.507.465.82.622.323.146.668.219 1.036.219a2.37 2.37 0 001.02-.219 2.59 2.59 0 00.837-.64c.234-.268.418-.582.552-.941a3.34 3.34 0 00.201-1.177c0-.415-.067-.802-.2-1.16a2.993 2.993 0 00-.553-.96 2.408 2.408 0 00-.836-.622 2.24 2.24 0 00-1.02-.235c-.357 0-.697.078-1.02.235-.313.157-.586.37-.82.64a3.242 3.242 0 00-.57.958c-.133.359-.2.746-.2 1.16zm12.673 4.542c-.691 0-1.316-.124-1.873-.37a4.38 4.38 0 01-1.405-.993 4.396 4.396 0 01-.904-1.446 4.907 4.907 0 01-.317-1.75c0-.605.106-1.182.317-1.732.212-.56.513-1.048.904-1.463a4.58 4.58 0 011.422-.992 4.54 4.54 0 011.856-.37c.68 0 1.294.123 1.84.37a4.333 4.333 0 011.422.992c.402.415.709.903.92 1.463.212.55.318 1.127.318 1.733 0 .605-.106 1.188-.318 1.749a4.26 4.26 0 01-.92 1.446c-.39.415-.864.746-1.422.993-.546.246-1.16.37-1.84.37zm-2.61-4.542c0 .427.068.819.202 1.178.133.359.317.672.552.942.234.258.507.465.82.622.323.146.668.219 1.036.219s.709-.073 1.02-.219a2.59 2.59 0 00.837-.64c.234-.268.418-.582.552-.941a3.34 3.34 0 00.201-1.177c0-.415-.067-.802-.2-1.16a2.995 2.995 0 00-.553-.96 2.408 2.408 0 00-.836-.622 2.24 2.24 0 00-1.02-.235c-.357 0-.698.078-1.021.235-.312.157-.586.37-.82.64a3.237 3.237 0 00-.568.958 3.292 3.292 0 00-.201 1.16zm22.125 4.373h-1.84v-4.928c0-.818-.134-1.418-.402-1.8-.267-.38-.658-.571-1.17-.571-.525 0-1.005.196-1.44.589-.423.38-.73.88-.92 1.497v5.213h-1.84v-4.928c0-.83-.133-1.43-.401-1.8-.268-.38-.652-.571-1.154-.571-.524 0-1.004.19-1.439.572-.435.381-.747.88-.937 1.497v5.23h-1.84v-8.796h1.673v1.766c.346-.617.797-1.088 1.355-1.413.569-.336 1.216-.504 1.94-.504.725 0 1.294.19 1.707.572.424.38.686.857.786 1.43.368-.651.83-1.145 1.388-1.48.558-.349 1.194-.522 1.907-.522.513 0 .937.1 1.272.303.346.19.619.448.82.773.2.325.34.707.418 1.144.078.426.117.88.117 1.362v5.365z" fill="#fff"/><path fill="#fff" d="M32.99 15.786h15.456v1.647H32.99zm.005 6.499h11.478v1.642H32.995z"/><path fill-rule="evenodd" clip-rule="evenodd" d="M20.709 30.88L8.804 24.682l.206-.388 11.905 6.198-.206.388zm7.076-6.073V11.91h.443v12.897h-.443zm-.221-8.017l-6.695 3.937-.19-.404 6.658-3.91.227.377zm-.671-5.305l-6.578-3.767-8.261 4.821 6.434 3.708 8.405-4.762zm-6.58-4.275l-9.136 5.332 7.31 4.212 9.298-5.269-.384-.216-7.088-4.059z" fill="#fff"/><path d="M8.874 24.707l-.189-.11-.11-8.391-5.537-3.236m5.836 11.737l7.306-4.174m-7.306 4.174l7.306 3.815m.368-8.199v8.333l-.368-.134m.368-8.199l-13.51-7.781v-2.205l.332-.22 15.17-8.611 14.936 8.94v5.32h.482l.017-5.614L18.542 1 3.137 9.744l-.542.358v18.102L18.875 37l1.66-.902v.009l.325-.186.173-.094v-.004l12.886-7.57.02-5.396h-.462v5.141l-12.5 7.35v-4.443l9.136-5.098-9.435-5.484m-4.13 0l-.368.21m4.498-.21l-.088.051v15.193l-1.716.933-15.836-8.557V12.97m17.64 7.354l.191.404 6.695-3.937-.227-.377-6.659 3.91zM3.038 12.97v-.164m13.142 7.728v7.989M27.4 11.269L20.314 7.21l-9.136 5.332 7.31 4.212 9.298-5.269-.384-.216zm-11.736 9.053L9.121 24.06l-.1-7.564 6.643 3.826zm13.585 5.497l-8.216 4.537v-9.323l8.216 4.786zm-8.933-18.1l6.577 3.766-8.405 4.762-6.434-3.708 8.261-4.82zM8.803 24.681l11.905 6.198.206-.388L9.01 24.294l-.206.388zM27.785 11.91v12.897h.443V11.91h-.443z" stroke="#fff" stroke-width="1.175"/></svg>