<svg xmlns="http://www.w3.org/2000/svg" xmlns:xlink="http://www.w3.org/1999/xlink"><symbol id="icon-arrow" viewBox="0 0 8 12">
<path d="M7 1L1 6L7 11" stroke="white"/>
<path d="M0.205078 6L1.13818 5.23715L1.13818 6.76285L0.205078 6Z" fill="white"/>
</symbol><symbol id="icon-clock" viewBox="0 0 20 20">
<path d="M10 -1.94285e-06C4.48653 -1.94285e-06 0 4.48652 0 10C0 15.5135 4.48653 20 10 20C15.5135 20 20 15.5135 20 10C20 4.48652 15.5135 -1.94285e-06 10 -1.94285e-06ZM10 1.57895C14.6601 1.57895 18.4211 5.33985 18.4211 10C18.4211 14.6601 14.6601 18.421 10 18.421C5.33987 18.421 1.57895 14.6601 1.57895 10C1.57895 5.33985 5.33987 1.57895 10 1.57895ZM10 2.89473C9.564 2.89473 9.21053 3.24821 9.21053 3.68421V10C9.21053 10.292 9.36963 10.546 9.60526 10.6826L14.6217 13.5773C14.9993 13.7953 15.481 13.6671 15.699 13.2895C15.9171 12.9119 15.7888 12.4302 15.4112 12.2122L10.7895 9.54771V3.68421C10.7895 3.24821 10.436 2.89473 10 2.89473Z" fill="white"/>
</symbol><symbol id="icon-location" viewBox="0 0 16 21">
<path d="M8.00001 4.18766C7.31187 4.18445 6.63826 4.38526 6.06453 4.76464C5.4908 5.14403 5.04277 5.68491 4.7772 6.31876C4.51163 6.95261 4.44048 7.6509 4.57276 8.32516C4.70504 8.99943 5.03479 9.61931 5.52025 10.1063C6.0057 10.5933 6.62501 10.9254 7.2997 11.0606C7.97438 11.1958 8.67409 11.1281 9.31017 10.8659C9.94624 10.6037 10.4901 10.1589 10.8727 9.58784C11.2554 9.01678 11.4596 8.34517 11.4596 7.6581C11.4597 6.74048 11.0957 5.8602 10.4473 5.20984C9.79899 4.55947 8.91905 4.19194 8.00001 4.18766ZM8.00001 9.509C7.63269 9.51221 7.2727 9.40639 6.96572 9.20497C6.65874 9.00355 6.41861 8.71561 6.27581 8.3777C6.13301 8.03979 6.09398 7.66713 6.16367 7.30703C6.23335 6.94693 6.40862 6.61562 6.66722 6.35515C6.92582 6.09467 7.25609 5.91678 7.61613 5.84404C7.97616 5.7713 8.34972 5.80699 8.68941 5.94659C9.02909 6.08619 9.31957 6.32341 9.524 6.62813C9.72842 6.93285 9.83756 7.29134 9.83758 7.6581C9.83821 8.14659 9.6454 8.61553 9.30118 8.96268C8.95696 9.30983 8.48925 9.50704 8.00001 9.51131V9.509Z" fill="#F2890F"/>
<path d="M8.00002 -3.08902e-08C3.80814 -3.08902e-08 0.299847 3.35707 0.0125101 7.63496C-0.0959796 9.60486 0.503931 11.5487 1.70409 13.1159L7.3512 20.6745C7.4267 20.7756 7.52477 20.8576 7.63761 20.9141C7.75045 20.9706 7.87494 21 8.00118 21C8.12742 21 8.25191 20.9706 8.36475 20.9141C8.47759 20.8576 8.57566 20.7756 8.65117 20.6745L14.2959 13.1206C15.4959 11.5532 16.0958 9.60946 15.9875 7.63959C15.7002 3.35707 12.1919 -3.08902e-08 8.00002 -3.08902e-08ZM12.996 12.1512L8.00002 18.8236L3.00406 12.1512C2.03779 10.8954 1.55143 9.33682 1.63226 7.75527C1.83386 4.74756 4.27159 1.62648 8.00234 1.62648C11.7331 1.62648 14.1662 4.73599 14.3678 7.74833C14.4503 9.33222 13.9638 10.8935 12.996 12.1512Z" fill="#F2890F"/>
</symbol><symbol id="icon-menu-closed" viewBox="0 0 20 14">
<path d="M0 1H20" stroke="white" stroke-width="2"/>
<path d="M0 7H16" stroke="white" stroke-width="2"/>
<path d="M0 13H20" stroke="white" stroke-width="2"/>
</symbol><symbol id="icon-menu-opened" viewBox="0 0 16 16">
<path d="M0.928955 15.1422L15.0711 1.00002" stroke="white" stroke-width="2"/>
<path d="M0.928955 1L15.0711 15.1421" stroke="white" stroke-width="2"/>
</symbol><symbol id="icon-person" viewBox="0 0 19 24">
<path d="M12.9964 15.2987H14.4411C16.0675 15.2987 17.6567 16.516 17.3864 18.0817L17.0918 19.5659C16.6872 21.2936 15.7729 22.3489 14.1466 22.5H4.87191C3.24553 22.3489 2.36932 21.0334 1.92664 19.5659L1.63211 18.0817C1.27368 16.5627 2.95101 15.2987 4.57738 15.2987H5.98228M4.51113 6.52862C4.17831 6.52862 3.84579 6.81026 3.84579 7.1573V8.41438C3.84579 8.76114 4.14385 9.04334 4.51113 9.04334C4.51113 9.04334 5.50898 11.5572 6.17402 12.5004C6.58607 13.0848 7.17188 14.4877 9.50012 14.4877C11.8284 14.4877 12.4139 13.0848 12.8262 12.5004C13.4915 11.5572 14.4891 9.04334 14.4891 9.04334C14.8561 9.04334 15.1544 8.76114 15.1544 8.41438V7.1573C15.1544 6.81026 14.8561 6.52862 14.4891 6.52862V5.58573C14.4891 3.38577 13.172 1.5 9.50012 1.5C5.84121 1.5 4.51113 3.38549 4.51113 5.58573V6.52862Z" stroke="white" stroke-miterlimit="10" stroke-linecap="round" stroke-linejoin="round"/>
</symbol><symbol id="icon-puzzle" viewBox="0 0 22 22">
<path d="M15.0106 4.85815L15.0096 4.85985C14.8984 5.04881 14.9288 5.27544 15.025 5.44566C15.1214 5.61612 15.3003 5.75925 15.5224 5.75925H20.4407V9.98742C20.0489 9.81984 19.6261 9.70925 19.1685 9.70925C17.2971 9.70925 15.7778 11.2286 15.7778 13.1C15.7778 14.9714 17.2971 16.4907 19.1685 16.4907C19.627 16.4907 20.0499 16.3735 20.4407 16.2047V20.4407H5.75925V15.5224C5.75925 15.3014 5.61942 15.1225 5.45107 15.0247C5.28315 14.9272 5.05939 14.8944 4.87052 14.9999L4.8705 14.9999L4.86756 15.0016C4.53871 15.1974 4.17208 15.3065 3.76575 15.3065C2.54473 15.3065 1.55925 14.3287 1.55925 13.1C1.55925 11.8713 2.54473 10.8935 3.76575 10.8935C4.17378 10.8935 4.54018 10.9952 4.86756 11.1901L4.86754 11.1901L4.87052 11.1918C5.05933 11.2973 5.28287 11.2645 5.45048 11.1684C5.61812 11.0722 5.75925 10.8956 5.75925 10.6776V5.75925H10.6776C10.8997 5.75925 11.0786 5.61612 11.175 5.44566C11.2712 5.27544 11.3016 5.04881 11.1904 4.85985L11.1904 4.85984L11.1894 4.85815C10.9953 4.53988 10.8935 4.17403 10.8935 3.76575C10.8935 2.54473 11.8713 1.55925 13.1 1.55925C14.3287 1.55925 15.3065 2.54473 15.3065 3.76575C15.3065 4.17403 15.2047 4.53988 15.0106 4.85815ZM13.1 0.375C11.2284 0.375 9.70925 1.90282 9.70925 3.76575C9.70925 4.05123 9.75056 4.31806 9.81769 4.575H5.16299C5.0045 4.575 4.85825 4.64814 4.7532 4.7532C4.64814 4.85826 4.575 5.0045 4.575 5.16299V9.81769C4.31806 9.75056 4.05123 9.70925 3.76575 9.70925C1.90282 9.70925 0.375 11.2284 0.375 13.1C0.375 14.9716 1.90282 16.4907 3.76575 16.4907C4.05123 16.4907 4.31806 16.4494 4.575 16.3823V21.037C4.575 21.1955 4.64814 21.3417 4.7532 21.4468C4.85825 21.5519 5.0045 21.625 5.16299 21.625H21.037C21.1955 21.625 21.3417 21.5519 21.4468 21.4468C21.5519 21.3417 21.625 21.1955 21.625 21.037V15.1835C21.625 14.9547 21.4908 14.7351 21.2785 14.6396C21.0682 14.5449 20.808 14.5858 20.6383 14.7441C20.2473 15.0957 19.7315 15.3065 19.1685 15.3065C17.9395 15.3065 16.962 14.329 16.962 13.1C16.962 11.871 17.9395 10.8935 19.1685 10.8935C19.7328 10.8935 20.2482 11.0969 20.6383 11.4476C20.8074 11.6054 21.0592 11.6471 21.2702 11.5522C21.4778 11.4587 21.625 11.2421 21.625 11.0165V5.16299C21.625 5.0045 21.5519 4.85826 21.4468 4.7532C21.3417 4.64814 21.1955 4.575 21.037 4.575H16.3823C16.4494 4.31806 16.4907 4.05123 16.4907 3.76575C16.4907 1.90282 14.9716 0.375 13.1 0.375Z" fill="white" stroke="white" stroke-width="0.25"/>
</symbol><symbol id="icon-social-insta" viewBox="0 0 28 28">
<path d="M16.6797 14C16.6797 15.48 15.48 16.6797 14 16.6797C12.52 16.6797 11.3203 15.48 11.3203 14C11.3203 12.52 12.52 11.3203 14 11.3203C15.48 11.3203 16.6797 12.52 16.6797 14Z" fill="#C6C4C2"/>
<path d="M20.2667 9.25888C20.1379 8.90982 19.9324 8.59387 19.6654 8.33453C19.406 8.0675 19.0903 7.862 18.741 7.73318C18.4578 7.62317 18.0322 7.49222 17.2484 7.45654C16.4006 7.41788 16.1464 7.40955 13.9999 7.40955C11.8532 7.40955 11.599 7.41766 10.7513 7.45633C9.96753 7.49222 9.54178 7.62317 9.25873 7.73318C8.90945 7.862 8.59351 8.0675 8.33438 8.33453C8.06735 8.59387 7.86185 8.90961 7.73282 9.25888C7.6228 9.54214 7.49185 9.9679 7.45618 10.7517C7.41751 11.5993 7.40918 11.8535 7.40918 14.0002C7.40918 16.1467 7.41751 16.4009 7.45618 17.2488C7.49185 18.0326 7.6228 18.4581 7.73282 18.7414C7.86185 19.0907 8.06714 19.4064 8.33417 19.6657C8.59351 19.9328 8.90924 20.1383 9.25851 20.2671C9.54178 20.3773 9.96753 20.5083 10.7513 20.5439C11.599 20.5826 11.853 20.5907 13.9997 20.5907C16.1466 20.5907 16.4008 20.5826 17.2482 20.5439C18.032 20.5083 18.4578 20.3773 18.741 20.2671C19.4421 19.9966 19.9963 19.4425 20.2667 18.7414C20.3767 18.4581 20.5077 18.0326 20.5436 17.2488C20.5822 16.4009 20.5904 16.1467 20.5904 14.0002C20.5904 11.8535 20.5822 11.5993 20.5436 10.7517C20.5079 9.9679 20.377 9.54214 20.2667 9.25888ZM13.9999 18.1281C11.7199 18.1281 9.87161 16.28 9.87161 14C9.87161 11.72 11.7199 9.87198 13.9999 9.87198C16.2797 9.87198 18.1279 11.72 18.1279 14C18.1279 16.28 16.2797 18.1281 13.9999 18.1281ZM18.2911 10.6735C17.7584 10.6735 17.3264 10.2415 17.3264 9.70877C17.3264 9.17599 17.7584 8.74405 18.2911 8.74405C18.8239 8.74405 19.2559 9.17599 19.2559 9.70877C19.2556 10.2415 18.8239 10.6735 18.2911 10.6735Z" fill="#C6C4C2"/>
<path d="M14 0C6.2692 0 0 6.2692 0 14C0 21.7308 6.2692 28 14 28C21.7308 28 28 21.7308 28 14C28 6.2692 21.7308 0 14 0ZM21.9906 17.3144C21.9517 18.1701 21.8156 18.7544 21.6169 19.2658C21.1993 20.3457 20.3457 21.1993 19.2658 21.6169C18.7546 21.8156 18.1701 21.9515 17.3146 21.9906C16.4573 22.0297 16.1834 22.0391 14.0002 22.0391C11.8168 22.0391 11.5431 22.0297 10.6856 21.9906C9.83008 21.9515 9.24561 21.8156 8.73441 21.6169C8.19778 21.4151 7.71201 21.0987 7.31039 20.6896C6.90152 20.2882 6.58514 19.8022 6.38327 19.2658C6.1846 18.7546 6.04852 18.1701 6.00964 17.3146C5.97012 16.4571 5.96094 16.1832 5.96094 14C5.96094 11.8168 5.97012 11.5429 6.00943 10.6856C6.04831 9.82986 6.18417 9.24561 6.38284 8.73419C6.58472 8.19778 6.90131 7.71179 7.31039 7.31039C7.71179 6.90131 8.19778 6.58493 8.73419 6.38306C9.24561 6.18439 9.82986 6.04852 10.6856 6.00943C11.5429 5.97034 11.8168 5.96094 14 5.96094C16.1832 5.96094 16.4571 5.97034 17.3144 6.00964C18.1701 6.04852 18.7544 6.18439 19.2658 6.38284C19.8022 6.58472 20.2882 6.90131 20.6898 7.31039C21.0987 7.71201 21.4153 8.19778 21.6169 8.73419C21.8158 9.24561 21.9517 9.82986 21.9908 10.6856C22.0299 11.5429 22.0391 11.8168 22.0391 14C22.0391 16.1832 22.0299 16.4571 21.9906 17.3144Z" fill="#C6C4C2"/>
</symbol><symbol id="icon-social-vk" viewBox="0 0 28 28">
<path fill-rule="evenodd" clip-rule="evenodd" d="M14 28C21.732 28 28 21.732 28 14C28 6.26801 21.732 0 14 0C6.26801 0 0 6.26801 0 14C0 21.732 6.26801 28 14 28ZM19.9085 15.7806C19.7608 15.6459 19.6132 15.5111 19.4676 15.3741C18.9719 14.908 18.9402 14.6375 19.3393 14.1008C19.5705 13.788 19.8114 13.4819 20.0522 13.1758C20.2638 12.9069 20.4753 12.638 20.6802 12.3647C20.6957 12.3441 20.7112 12.3234 20.7267 12.3027C21.1214 11.7762 21.5172 11.2482 21.7245 10.6192C21.8612 10.2027 21.7399 10.0191 21.2973 9.94642C21.2218 9.93398 21.143 9.93288 21.0652 9.93288L18.4384 9.93062C18.1148 9.92459 17.9356 10.0609 17.8215 10.3378C17.6674 10.7111 17.5084 11.0846 17.3235 11.4443C16.9069 12.2623 16.4405 13.0523 15.7871 13.7208C15.7777 13.7303 15.7683 13.74 15.7589 13.7497C15.6215 13.8911 15.4677 14.0494 15.242 13.9783C14.9406 13.8715 14.8523 13.3928 14.857 13.2315L14.8546 10.3095C14.7958 9.89277 14.7004 9.70673 14.2707 9.625H11.5415C11.1776 9.625 10.995 9.76133 10.8009 9.98034C10.6892 10.1073 10.6548 10.1901 10.8856 10.2323C11.3379 10.3149 11.5933 10.5978 11.6605 11.0347C11.7699 11.7348 11.7617 12.4361 11.6993 13.1386C11.6804 13.3428 11.6439 13.5482 11.5602 13.7388C11.4285 14.0395 11.2153 14.1008 10.9352 13.916C10.6821 13.749 10.5043 13.5119 10.33 13.2747C9.67534 12.3839 9.1538 11.4228 8.72757 10.4126C8.60394 10.1211 8.39197 9.94406 8.07178 9.93955C7.28304 9.9269 6.49534 9.92585 5.70754 9.9406C5.23311 9.94847 5.09183 10.1709 5.28501 10.5854C6.14324 12.4249 7.09814 14.2143 8.34507 15.8427C8.98551 16.679 9.7213 17.4177 10.6702 17.941C11.7464 18.5345 12.9049 18.7126 14.1257 18.6571C14.6969 18.632 14.8688 18.4879 14.8946 17.9398C14.9135 17.5641 14.957 17.1909 15.1489 16.8538C15.3373 16.5224 15.6234 16.4593 15.9531 16.6655C16.1179 16.7687 16.2558 16.8992 16.3876 17.0379C16.4916 17.1476 16.5943 17.2584 16.697 17.3691C16.912 17.6009 17.1269 17.8327 17.3531 18.0548C17.7709 18.4652 18.2678 18.7069 18.8906 18.6571L21.3055 18.6582C21.694 18.6332 21.8965 18.1737 21.6729 17.7561C21.5151 17.4623 21.3089 17.2011 21.091 16.948C20.7284 16.5291 20.3186 16.155 19.9085 15.7806Z" fill="#C6C4C2"/>
</symbol><symbol id="icon-target" viewBox="0 0 24 24">
<path d="M12 22C6.48593 22 2 17.5141 2 12.0001C2 6.48599 6.48593 2 12 2C17.5141 2 22 6.48599 22 12.0001C22 17.5141 17.5141 22 12 22ZM12.6802 3.38646V7.51266C12.6802 7.88808 12.3757 8.19259 12 8.19259C11.6243 8.19259 11.3198 7.88815 11.3198 7.51266V3.38646C7.09698 3.71697 3.71734 7.09704 3.38709 11.3201H7.51063C7.88622 11.3201 8.19087 11.6245 8.19087 12C8.19087 12.3755 7.88622 12.6799 7.51063 12.6799H3.38709C3.71734 16.903 7.09698 20.283 11.3198 20.6135V16.4873C11.3198 16.1119 11.6243 15.8074 12 15.8074C12.3757 15.8074 12.6802 16.1119 12.6802 16.4873V20.6135C16.9031 20.283 20.2827 16.903 20.6129 12.6799H16.4894C16.1138 12.6799 15.8091 12.3755 15.8091 12C15.8091 11.6245 16.1137 11.3201 16.4894 11.3201H20.6129C20.2826 7.09697 16.903 3.71697 12.6802 3.38646Z" fill="#F2890F"/>
</symbol></svg>