<svg width="19" height="24" fill="none" xmlns="http://www.w3.org/2000/svg"><path d="M12.996 15.299h1.445c1.626 0 3.216 1.217 2.945 2.783l-.294 1.484c-.405 1.728-1.32 2.783-2.945 2.934H4.872c-1.626-.151-2.503-1.467-2.945-2.934l-.295-1.484c-.358-1.52 1.319-2.783 2.945-2.783h1.405m-1.47-8.77c-.334 0-.666.281-.666.628v1.257c0 .347.298.63.665.63 0 0 .998 2.513 1.663 3.456.412.585.998 1.988 3.326 1.988 2.328 0 2.914-1.403 3.326-1.988.665-.943 1.663-3.457 1.663-3.457.367 0 .665-.282.665-.629V7.157c0-.347-.298-.628-.665-.628v-.943c0-2.2-1.317-4.086-4.989-4.086-3.659 0-4.989 1.885-4.989 4.086v.943z" stroke="#fff" stroke-miterlimit="10" stroke-linecap="round" stroke-linejoin="round"/></svg>