<svg width="21" height="24" fill="none" xmlns="http://www.w3.org/2000/svg"><g clip-path="url(#clip0)" fill="#fff"><path d="M18.436 0h-7.563c-1.825 0-3.31 1.57-3.31 3.5v11c0 .276.213.5.473.5a.487.487 0 00.473-.5v-11C8.51 2.122 9.57 1 10.873 1h5.674a2.584 2.584 0 00-.474 1.5V17h-3.31a.487.487 0 00-.472.5c0 .276.212.5.473.5h3.782c.26 0 .472-.224.472-.5v-15c0-.827.636-1.5 1.418-1.5a.487.487 0 00.473-.5c0-.276-.212-.5-.473-.5z"/><path d="M14.655 14h-8.51c-1.824 0-3.309 1.57-3.309 3.5v3c0 1.378-1.06 2.5-2.363 2.5a.487.487 0 00-.473.5c0 .276.212.5.473.5h9.454c1.825 0 3.31-1.57 3.31-3.5v-4c0-.827.636-1.5 1.418-1.5a.487.487 0 00.472-.5c0-.276-.212-.5-.473-.5zm-2.364 2.5v4c0 1.378-1.06 2.5-2.364 2.5h-7.14a3.59 3.59 0 00.995-2.5v-3c0-1.378 1.06-2.5 2.363-2.5h6.62a2.584 2.584 0 00-.474 1.5z"/><path d="M14.655 14h-.946a.487.487 0 00-.473.5c0 .276.212.5.473.5h.946c.781 0 1.418.673 1.418 1.5v1c0 .276.212.5.472.5a.487.487 0 00.473-.5v-1c0-1.378-1.06-2.5-2.364-2.5zm3.781-14a.487.487 0 00-.472.5c0 .276.211.5.472.5.782 0 1.419.673 1.419 1.5V3h-3.31a.487.487 0 00-.472.5c0 .276.212.5.473.5h3.781a.487.487 0 00.473-.5v-1c0-1.378-1.06-2.5-2.364-2.5zm-3.781 3H9.927a.487.487 0 00-.472.5c0 .276.211.5.472.5h4.728a.487.487 0 00.472-.5c0-.276-.211-.5-.472-.5zm0 3H9.927a.487.487 0 00-.472.5c0 .276.211.5.472.5h4.728a.487.487 0 00.472-.5c0-.276-.211-.5-.472-.5zm0 3H9.927a.487.487 0 00-.472.5c0 .276.211.5.472.5h4.728a.487.487 0 00.472-.5c0-.276-.211-.5-.472-.5zm0 3H9.927a.487.487 0 00-.472.5c0 .276.211.5.472.5h4.728a.487.487 0 00.472-.5c0-.276-.211-.5-.472-.5zm-3.782 5H5.2a.487.487 0 00-.473.5c0 .276.212.5.473.5h5.673c.26 0 .473-.224.473-.5s-.212-.5-.473-.5zm0 3H5.2a.487.487 0 00-.473.5c0 .276.212.5.473.5h5.673c.26 0 .473-.224.473-.5s-.212-.5-.473-.5z"/></g><defs><clipPath id="clip0"><path fill="#fff" d="M0 0h20.8v24H0z"/></clipPath></defs></svg>