<svg width="22" height="22" fill="none" xmlns="http://www.w3.org/2000/svg"><path d="M15.01 4.858v.002c-.112.189-.081.415.015.586.096.17.275.313.497.313h4.919v4.228a3.212 3.212 0 00-1.272-.278 3.392 3.392 0 00-3.391 3.391c0 1.871 1.52 3.39 3.39 3.39a3.19 3.19 0 001.273-.285v4.236H5.759v-4.919c0-.22-.14-.4-.308-.497a.59.59 0 00-.58-.025h0l-.003.002a2.12 2.12 0 01-1.102.304A2.199 2.199 0 011.559 13.1a2.2 2.2 0 012.207-2.207c.408 0 .774.102 1.102.297h0l.003.002a.593.593 0 00.58-.024c.167-.096.308-.272.308-.49V5.759h4.919a.585.585 0 00.497-.313c.096-.17.127-.397.015-.586h0v-.002a2.063 2.063 0 01-.296-1.092c0-1.221.977-2.207 2.206-2.207s2.207.986 2.207 2.207c0 .408-.102.774-.296 1.092zM13.1.375a3.398 3.398 0 00-3.39 3.39c0 .286.04.553.108.81H5.163a.588.588 0 00-.41.178.588.588 0 00-.178.41v4.655a3.172 3.172 0 00-.81-.109A3.398 3.398 0 00.376 13.1a3.398 3.398 0 003.39 3.39c.286 0 .553-.04.81-.108v4.655c0 .159.073.305.178.41a.588.588 0 00.41.178h15.874a.588.588 0 00.41-.178.588.588 0 00.178-.41v-5.853a.6.6 0 00-.346-.544.595.595 0 00-.64.104 2.19 2.19 0 01-1.47.563 2.193 2.193 0 01-2.207-2.207c0-1.229.977-2.207 2.207-2.207.564 0 1.08.204 1.47.555.168.157.42.2.631.104a.605.605 0 00.355-.535V5.163a.588.588 0 00-.178-.41.588.588 0 00-.41-.178h-4.655a3.18 3.18 0 00.109-.81c0-1.862-1.52-3.39-3.391-3.39z" fill="#fff" stroke="#fff" stroke-width=".25"/></svg>