<svg width="23" height="24" fill="none" xmlns="http://www.w3.org/2000/svg"><g clip-path="url(#clip8)"><path d="M11.8 0c-.748 0-1.452.304-2.061.786a2.113 2.113 0 00-.91-.215c-1.142 0-2.08.903-2.08 2 0 .613.294 1.168.752 1.536-.06.15-.12.3-.177.456a13.348 13.348 0 00-2.266-.233C3.241 4.318 1.711 4.8.991 6 .548 6.738.503 7.625.749 8.518c.247.893.769 1.82 1.505 2.759.189.24.396.481.613.723-.217.242-.424.482-.613.723-.736.94-1.258 1.857-1.505 2.75-.235.85-.2 1.703.186 2.42-.082.214-.13.438-.13.678 0 1.098.939 2 2.08 2 .729 0 1.374-.368 1.746-.92.822.035 1.727-.04 2.693-.213.11.302.23.587.353.866.478 1.082 1.055 1.973 1.737 2.625.68.651 1.5 1.071 2.386 1.071.886 0 1.705-.42 2.387-1.071.68-.652 1.258-1.543 1.736-2.625.123-.279.243-.564.353-.866.317.057.625.107.929.142.206.895 1.035 1.572 2.024 1.572 1.142 0 2.08-.902 2.08-2v-.01c.544-.265 1.002-.645 1.3-1.142.443-.738.489-1.634.242-2.527-.247-.893-.768-1.81-1.505-2.75a14.446 14.446 0 00-.613-.723c.218-.242.424-.482.613-.723.736-.94 1.258-1.866 1.505-2.76.247-.892.201-1.779-.242-2.517-.72-1.2-2.25-1.681-4.067-1.67a13.34 13.34 0 00-2.266.233c-.11-.303-.23-.597-.353-.875-.478-1.083-1.055-1.974-1.736-2.625C13.506.41 12.687 0 11.8 0zm0 1.143c.509 0 1.023.227 1.55.732.529.505 1.042 1.282 1.477 2.268.094.212.184.439.27.67A23.219 23.219 0 0011.8 5.929a23.22 23.22 0 00-3.297-1.116c.033-.087.07-.167.103-.25.072.007.148.008.223.008 1.141 0 2.08-.902 2.08-2a1.91 1.91 0 00-.279-1c.396-.286.784-.428 1.17-.428zm-2.971.571c.499 0 .891.377.891.857s-.392.858-.891.858c-.5 0-.892-.377-.892-.858 0-.48.392-.857.892-.857zm-3.77 3.76c.582.003 1.23.066 1.922.187a21.092 21.092 0 00-.65 3.303 22.521 22.521 0 00-2.647 2.188 13.105 13.105 0 01-.474-.563c-.67-.855-1.118-1.674-1.309-2.366-.191-.691-.143-1.228.111-1.652.414-.688 1.452-1.108 3.046-1.098zm13.483 0c1.595-.011 2.632.409 3.046 1.097.254.424.302.96.111 1.652s-.638 1.51-1.31 2.366a13.12 13.12 0 01-.473.563 22.566 22.566 0 00-2.656-2.188 21.18 21.18 0 00-.64-3.303c.692-.121 1.34-.184 1.922-.188zM8.15 5.92c.698.174 1.43.393 2.182.67-.452.22-.903.453-1.356.705-.457.253-.89.526-1.319.794.128-.77.299-1.496.493-2.17zm7.308 0c.193.67.356 1.394.483 2.16a28.99 28.99 0 00-1.319-.785 29.194 29.194 0 00-1.356-.706 21.496 21.496 0 012.192-.67zM11.8 7.187c.736.324 1.484.685 2.229 1.099.745.414 1.447.852 2.108 1.303.076.778.12 1.58.12 2.411 0 .827-.045 1.636-.12 2.41a27.05 27.05 0 01-4.346 2.402 27.496 27.496 0 01-2.22-1.107 27.04 27.04 0 01-2.108-1.294A24.946 24.946 0 017.343 12c0-.827.045-1.627.12-2.402a26.73 26.73 0 012.108-1.312 26.983 26.983 0 012.23-1.099zm0 2.813c-1.142 0-2.08.902-2.08 2 0 1.098.938 2 2.08 2 1.142 0 2.08-.902 2.08-2 0-1.098-.938-2-2.08-2zm-5.6.518c-.027.488-.046.977-.046 1.482 0 .502.02.997.047 1.482A20.474 20.474 0 014.49 12a20.476 20.476 0 011.71-1.482zm11.2 0c.627.49 1.2.985 1.708 1.482a20.49 20.49 0 01-1.708 1.482c.027-.485.046-.98.046-1.482 0-.505-.02-.993-.046-1.482zm-13.716 2.34a22.567 22.567 0 002.656 2.178c.138 1.175.345 2.287.631 3.294-.729.128-1.4.19-2.006.188-.03-1.073-.957-1.947-2.08-1.947-.39 0-.754.112-1.068.295-.051-.316-.031-.681.084-1.098.191-.692.639-1.502 1.31-2.357.144-.185.308-.366.473-.554zm16.232 0c.165.187.33.368.474.553.67.856 1.118 1.665 1.31 2.357.19.691.142 1.237-.112 1.66-.144.24-.353.444-.641.608a2.12 2.12 0 00-1.718-.884c-.881 0-1.64.544-1.94 1.294-.22-.027-.44-.067-.67-.107.289-1.01.502-2.124.641-3.303a22.575 22.575 0 002.656-2.179zM7.658 15.92c.427.267.864.524 1.32.776.452.252.903.494 1.355.715a21.75 21.75 0 01-2.192.67 19.16 19.16 0 01-.483-2.161zm8.284 0c-.128.77-.29 1.496-.483 2.17-.7-.175-1.437-.401-2.192-.68.453-.22.902-.462 1.356-.714.455-.252.892-.51 1.319-.776zM2.885 17.714c.5 0 .892.377.892.857s-.392.858-.892.858-.891-.377-.891-.858c0-.48.392-.857.891-.857zm8.924.357c1.133.473 2.243.843 3.297 1.108-.088.234-.183.463-.279.678-.435.986-.948 1.763-1.476 2.268-.528.505-1.042.732-1.55.732-.51 0-1.024-.227-1.552-.732-.527-.505-1.04-1.282-1.476-2.268a12.51 12.51 0 01-.27-.67 23.094 23.094 0 003.306-1.116zm7.42.224c.5 0 .892.377.892.857s-.392.857-.892.857-.891-.377-.891-.857.392-.857.891-.857z" fill="#fff"/></g><defs><clipPath id="clip8"><path fill="#fff" d="M.6 0H23v24H.6z"/></clipPath></defs></svg>