<svg width="33" height="24" fill="none" xmlns="http://www.w3.org/2000/svg"><g clip-path="url(#clip0)"><path d="M31.533 7.797l-.52-1.125H20.151l-.557.99c-.146.261-.51 1.06-.745 2.867a87.632 87.632 0 01-.756-1.002c-1.535-2.059-3.276-4.392-5.678-5.814-1.253-.741-2.892-1.37-4.495-1.725-.8-.177-2.054-.388-3.493-.388H3.313C1.66 1.6.315 2.917.315 4.536S1.66 7.472 3.313 7.472h1.193c1.766 0 2.868.467 4.214 1.784 1.117 1.094 2.034 2.582 3.005 4.157 1.616 2.62 3.448 5.59 6.718 7.458 1.777 1.014 3.608 1.529 5.443 1.529a10.09 10.09 0 003.801-.755 7.12 7.12 0 003.599-3.194c.673-1.22 1.029-2.654 1.029-4.148 0-4.467-.598-6.11-.782-6.506zm-20.887.678a11.638 11.638 0 00-.545-.572C8.372 6.21 6.77 5.558 4.506 5.558H3.313A1.033 1.033 0 012.27 4.536c0-.565.468-1.022 1.044-1.022h1.114c1.35 0 2.513.219 3.062.34 1.55.343 2.976.941 3.915 1.497.49.29.954.634 1.397 1.014l-2.155 2.11zm16.295 11.402a8.096 8.096 0 01-3.055.61c-1.43 0-2.927-.394-4.458-1.27-3.768-2.152-5.4-6.09-7.584-9.209l2.335-2.286c2.615 2.895 4.452 6.623 6.41 6.623 0-4.486.717-5.76.717-5.76h8.447s.608 1.317.608 5.718c0 2.193-.977 4.585-3.42 5.574z" fill="#fff"/></g><defs><clipPath id="clip0"><path fill="#fff" d="M.315 0h32v24h-32z"/></clipPath></defs></svg>